<?xml version="1.0" encoding="UTF-8"?>
<svg width="1920px" height="50px" viewBox="0 0 1920 50" version="1.1" xmlns="http://www.w3.org/2000/svg" xmlns:xlink="http://www.w3.org/1999/xlink" preserveAspectRatio="none">
    <defs>
        <rect id="path-1" x="0" y="0" width="1920" height="50"></rect>
    </defs>
    <g id="Page-1" stroke="none" stroke-width="1" fill="none" fill-rule="evenodd">
        <g id="mask" transform="translate(960.000000, 25.000000) scale(1, -1) translate(-960.000000, -25.000000) ">
            <g id="Rectangle" fill="#D8D8D8" fill-opacity="0" fill-rule="nonzero">
                <rect id="path-1" x="0" y="0" width="1920" height="50"></rect>
            </g>
            <g id="Fill-1-Clipped">
                <mask id="mask-2" fill="white">
                    <use xlink:href="#path-1"></use>
                </mask>
                <g id="path-1"></g>
                <path d="M-10.0737242,-10.2780135 C-7.50999698,-13.2672141 -6.83818597,-11.4567203 -3.22406365,-11.4567203 C0.38905446,-11.4567203 0.38905446,-10.8461502 4.00317677,-10.8461502 C7.61629489,-10.8461502 7.61629489,-10.2532606 11.2304172,-10.2532606 C14.8435353,-10.2532606 14.8435353,-10.8932985 18.4576576,-10.8932985 C22.0707757,-10.8932985 22.0707757,-10.5467586 25.6838939,-10.5467586 C29.2980162,-10.5467586 29.2980162,-10.7777852 32.9111343,-10.7777852 C36.5242524,-10.7777852 36.5242524,-10.7601046 40.1383747,-10.7601046 C43.7514928,-10.7601046 43.7514928,-10.5962643 47.3646109,-10.5962643 C50.9787332,-10.5962643 50.9787332,-9.94090331 54.5918514,-9.94090331 C58.2049695,-9.94090331 58.2049695,-10.8661882 61.8190918,-10.8661882 C65.4322099,-10.8661882 65.4322099,-11.289344 69.0463322,-11.289344 C72.6604545,-11.289344 72.6604545,-10.6669867 76.2735726,-10.6669867 C79.887695,-10.6669867 79.887695,-10.360523 83.5018173,-10.360523 C87.1159396,-10.360523 87.1159396,-11.2363022 90.7300619,-11.2363022 C94.3441842,-11.2363022 94.3441842,-11.4201804 97.9583065,-11.4201804 C101.572429,-11.4201804 101.572429,-11.4284314 105.187555,-11.4284314 C108.802682,-11.4284314 108.802682,-11.446112 112.416804,-11.446112 C116.031931,-11.446112 116.031931,-10.0964926 119.647057,-10.0964926 C123.262184,-10.0964926 123.262184,-9.62972469 126.878314,-9.62972469 C130.493441,-9.62972469 130.493441,-10.734173 134.109572,-10.734173 C137.725702,-10.734173 137.725702,-10.6221959 141.340829,-10.6221959 C144.95696,-10.6221959 144.95696,-11.1231463 148.572086,-11.1231463 C152.188217,-11.1231463 152.188217,-10.5149336 155.803343,-10.5149336 C159.41847,-10.5149336 159.41847,-10.0729185 163.033596,-10.0729185 C166.647719,-10.0729185 166.647719,-10.0564166 170.262845,-10.0564166 C173.876968,-10.0564166 173.876968,-10.4147435 177.492094,-10.4147435 C181.106216,-10.4147435 181.106216,-11.0594961 184.720339,-11.0594961 C188.334461,-11.0594961 188.334461,-11.6924617 191.948583,-11.6924617 C195.562706,-11.6924617 195.562706,-11.2080132 199.176828,-11.2080132 C202.79095,-11.2080132 202.79095,-10.2013975 206.405073,-10.2013975 C210.019195,-10.2013975 210.019195,-10.7212073 213.632313,-10.7212073 C217.246435,-10.7212073 217.246435,-11.0111691 220.860558,-11.0111691 C224.47468,-11.0111691 224.47468,-11.0170627 228.087798,-11.0170627 C231.70192,-11.0170627 231.70192,-10.9156939 235.316043,-10.9156939 C238.930165,-10.9156939 238.930165,-10.742424 242.543283,-10.742424 C246.157405,-10.742424 246.157405,-10.8001806 249.771528,-10.8001806 C253.38565,-10.8001806 253.38565,-10.8520437 256.999772,-10.8520437 C260.613895,-10.8520437 260.613895,-10.9215874 264.228017,-10.9215874 C267.843144,-10.9215874 267.843144,-10.6811312 271.457266,-10.6811312 C275.072392,-10.6811312 275.072392,-10.4701427 278.686515,-10.4701427 C282.301641,-10.4701427 282.301641,-10.7471388 285.916768,-10.7471388 C289.531894,-10.7471388 289.531894,-10.7612833 293.147021,-10.7612833 C296.763151,-10.7612833 296.763151,-10.2461884 300.378278,-10.2461884 C303.994409,-10.2461884 303.994409,-10.6386978 307.610539,-10.6386978 C311.225666,-10.6386978 311.225666,-10.428888 314.841797,-10.428888 C318.457927,-10.428888 318.457927,-9.94208202 322.074058,-9.94208202 C325.689185,-9.94208202 325.689185,-10.5149336 329.304311,-10.5149336 C332.919438,-10.5149336 332.919438,-11.0653897 336.534564,-11.0653897 C340.149691,-11.0653897 340.149691,-11.6005226 343.764817,-11.6005226 C347.378939,-11.6005226 347.378939,-10.6009792 350.994066,-10.6009792 C354.608188,-10.6009792 354.608188,-10.8378992 358.222311,-10.8378992 C361.837437,-10.8378992 361.837437,-9.81596038 365.451559,-9.81596038 C369.065682,-9.81596038 369.065682,-11.3718534 372.679804,-11.3718534 C376.293926,-11.3718534 376.293926,-10.3782036 379.909053,-10.3782036 C383.523175,-10.3782036 383.523175,-10.822576 387.137298,-10.822576 C390.75142,-10.822576 390.75142,-10.5043252 394.365542,-10.5043252 C397.979664,-10.5043252 397.979664,-11.2539828 401.593787,-11.2539828 C405.207909,-11.2539828 405.207909,-10.4171009 408.823036,-10.4171009 C412.437158,-10.4171009 412.437158,-10.879154 416.05128,-10.879154 C419.666407,-10.879154 419.666407,-10.6210172 423.281533,-10.6210172 C426.895656,-10.6210172 426.895656,-10.167215 430.510782,-10.167215 C434.125909,-10.167215 434.125909,-10.4347815 437.741035,-10.4347815 C441.357166,-10.4347815 441.357166,-10.1177093 444.972292,-10.1177093 C448.588423,-10.1177093 448.588423,-9.56843194 452.20355,-9.56843194 C455.81968,-9.56843194 455.81968,-11.5109409 459.435811,-11.5109409 C463.051942,-11.5109409 463.051942,-11.1160741 466.668072,-11.1160741 C470.284203,-11.1160741 470.284203,-10.3829184 473.89933,-10.3829184 C477.51546,-10.3829184 477.51546,-10.3852758 481.130587,-10.3852758 C484.745713,-10.3852758 484.745713,-11.3412071 488.36084,-11.3412071 C491.975967,-11.3412071 491.975967,-10.4088499 495.591093,-10.4088499 C499.205215,-10.4088499 499.205215,-9.90789952 502.820342,-9.90789952 C506.434464,-9.90789952 506.434464,-10.8838688 510.049591,-10.8838688 C513.663713,-10.8838688 513.663713,-11.1655797 517.27884,-11.1655797 C520.892962,-11.1655797 520.892962,-11.8433362 524.507084,-11.8433362 C528.122211,-11.8433362 528.122211,-10.4677853 531.736333,-10.4677853 C535.351459,-10.4677853 535.351459,-10.722386 538.965582,-10.722386 C542.580708,-10.722386 542.580708,-10.810789 546.194831,-10.810789 C549.809957,-10.810789 549.809957,-9.9915877 553.425084,-9.9915877 C557.04021,-9.9915877 557.04021,-10.6516636 560.655337,-10.6516636 C564.270463,-10.6516636 564.270463,-10.830827 567.88559,-10.830827 C571.500716,-10.830827 571.500716,-10.9840589 575.116847,-10.9840589 C578.732978,-10.9840589 578.732978,-9.86782348 582.349108,-9.86782348 C585.965239,-9.86782348 585.965239,-10.3169108 589.58137,-10.3169108 C593.197501,-10.3169108 593.197501,-10.9534125 596.813631,-10.9534125 C600.429762,-10.9534125 600.429762,-10.2202568 604.044889,-10.2202568 C607.661019,-10.2202568 607.661019,-11.1974048 611.276146,-11.1974048 C614.891272,-11.1974048 614.891272,-10.8826901 618.506399,-10.8826901 C622.121525,-10.8826901 622.121525,-11.4449333 625.736652,-11.4449333 C629.351778,-11.4449333 629.351778,-10.7436027 632.965901,-10.7436027 C636.581027,-10.7436027 636.581027,-10.8048954 640.196154,-10.8048954 C643.810276,-10.8048954 643.810276,-11.5215492 647.425402,-11.5215492 C651.040529,-11.5215492 651.040529,-10.6846673 654.654651,-10.6846673 C658.269778,-10.6846673 658.269778,-11.3223478 661.884904,-11.3223478 C665.500031,-11.3223478 665.500031,-10.4218157 669.115157,-10.4218157 C672.730284,-10.4218157 672.730284,-11.1302185 676.34541,-11.1302185 C679.960537,-11.1302185 679.960537,-10.6186598 683.576668,-10.6186598 C687.192798,-10.6186598 687.192798,-10.8567585 690.807925,-10.8567585 C694.424056,-10.8567585 694.424056,-11.2292299 698.040186,-11.2292299 C701.657321,-11.2292299 701.657321,-11.2056558 705.273452,-11.2056558 C708.889583,-11.2056558 708.889583,-10.7200285 712.505713,-10.7200285 C716.12084,-10.7200285 716.12084,-10.6811312 719.736971,-10.6811312 C723.352097,-10.6811312 723.352097,-11.6901043 726.967224,-11.6901043 C730.583354,-11.6901043 730.583354,-11.0924999 734.198481,-11.0924999 C737.813607,-11.0924999 737.813607,-10.6504848 741.428734,-10.6504848 C745.04386,-10.6504848 745.04386,-10.3004089 748.657983,-10.3004089 C752.273109,-10.3004089 752.273109,-10.9616635 755.888236,-10.9616635 C759.503362,-10.9616635 759.503362,-10.5585457 763.118489,-10.5585457 C766.733615,-10.5585457 766.733615,-10.3994203 770.348742,-10.3994203 C773.964873,-10.3994203 773.964873,-10.7377092 777.579999,-10.7377092 C781.19613,-10.7377092 781.19613,-11.3412071 784.811256,-11.3412071 C788.427387,-11.3412071 788.427387,-11.377747 792.043518,-11.377747 C795.659648,-11.377747 795.659648,-11.6818534 799.275779,-11.6818534 C802.892914,-11.6818534 802.892914,-11.0017395 806.509045,-11.0017395 C810.125176,-11.0017395 810.125176,-10.947519 813.741306,-10.947519 C817.356433,-10.947519 817.356433,-10.0210554 820.972564,-10.0210554 C824.58769,-10.0210554 824.58769,-11.73961 828.202817,-11.73961 C831.818947,-11.73961 831.818947,-10.4453898 835.434074,-10.4453898 C839.0492,-10.4453898 839.0492,-11.220979 842.664327,-11.220979 C846.279453,-11.220979 846.279453,-11.562804 849.89458,-11.562804 C853.509706,-11.562804 853.509706,-9.81242426 857.125837,-9.81242426 C860.740964,-9.81242426 860.740964,-10.292158 864.35609,-10.292158 C867.972221,-10.292158 867.972221,-11.1054657 871.588352,-11.1054657 C875.203478,-11.1054657 875.203478,-11.8645529 878.819609,-11.8645529 C882.436744,-11.8645529 882.436744,-11.7714351 886.052874,-11.7714351 C889.669005,-11.7714351 889.669005,-10.850865 893.28614,-10.850865 C896.902271,-10.850865 896.902271,-10.8520437 900.518401,-10.8520437 C904.133528,-10.8520437 904.133528,-9.98923029 907.749659,-9.98923029 C911.364785,-9.98923029 911.364785,-11.2280512 914.980916,-11.2280512 C918.596042,-11.2280512 918.596042,-10.4171009 922.211169,-10.4171009 C925.8273,-10.4171009 925.8273,-10.0293063 929.442426,-10.0293063 C933.057553,-10.0293063 933.057553,-10.6068727 936.673683,-10.6068727 C940.28881,-10.6068727 940.28881,-11.104287 943.904941,-11.104287 C947.520067,-11.104287 947.520067,-10.625732 951.136198,-10.625732 C954.752329,-10.625732 954.752329,-10.8968346 958.368459,-10.8968346 C961.985594,-10.8968346 961.985594,-10.9581273 965.601725,-10.9581273 C969.21886,-10.9581273 969.21886,-10.4583556 972.834991,-10.4583556 C976.451121,-10.4583556 976.451121,-10.460713 980.067252,-10.460713 C983.682379,-10.460713 983.682379,-10.5561883 987.298509,-10.5561883 C990.913636,-10.5561883 990.913636,-11.3223478 994.529767,-11.3223478 C998.144893,-11.3223478 998.144893,-10.4371389 1001.76102,-10.4371389 C1005.37615,-10.4371389 1005.37615,-11.5851994 1008.99228,-11.5851994 C1012.60841,-11.5851994 1012.60841,-10.9345532 1016.22354,-10.9345532 C1019.83967,-10.9345532 1019.83967,-11.4979751 1023.4558,-11.4979751 C1027.07193,-11.4979751 1027.07193,-11.2716634 1030.68907,-11.2716634 C1034.3052,-11.2716634 1034.3052,-9.9043634 1037.92233,-9.9043634 C1041.53846,-9.9043634 1041.53846,-10.9310171 1045.15459,-10.9310171 C1048.77072,-10.9310171 1048.77072,-11.0394581 1052.38685,-11.0394581 C1056.00198,-11.0394581 1056.00198,-10.585656 1059.61811,-10.585656 C1063.23424,-10.585656 1063.23424,-10.6269107 1066.84937,-10.6269107 C1070.4655,-10.6269107 1070.4655,-9.79356495 1074.08163,-9.79356495 C1077.69676,-9.79356495 1077.69676,-10.8602947 1081.31289,-10.8602947 C1084.92902,-10.8602947 1084.92902,-11.2445531 1088.54615,-11.2445531 C1092.16228,-11.2445531 1092.16228,-9.922044 1095.77942,-9.922044 C1099.39555,-9.922044 1099.39555,-9.8371771 1103.01168,-9.8371771 C1106.62881,-9.8371771 1106.62881,-10.6339829 1110.24495,-10.6339829 C1113.86007,-10.6339829 1113.86007,-11.0536026 1117.4762,-11.0536026 C1121.09233,-11.0536026 1121.09233,-10.3770249 1124.70846,-10.3770249 C1128.32359,-10.3770249 1128.32359,-10.5797624 1131.93972,-10.5797624 C1135.55585,-10.5797624 1135.55585,-11.1372908 1139.17198,-11.1372908 C1142.78811,-11.1372908 1142.78811,-9.63679694 1146.40525,-9.63679694 C1150.02138,-9.63679694 1150.02138,-10.0410934 1153.63851,-10.0410934 C1157.25565,-10.0410934 1157.25565,-10.2308652 1160.87178,-10.2308652 C1164.48791,-10.2308652 1164.48791,-10.0740972 1168.10404,-10.0740972 C1171.72017,-10.0740972 1171.72017,-10.2367587 1175.3363,-10.2367587 C1178.95243,-10.2367587 1178.95243,-11.5368724 1182.56756,-11.5368724 C1186.18369,-11.5368724 1186.18369,-11.526264 1189.79982,-11.526264 C1193.41595,-11.526264 1193.41595,-11.3753896 1197.03208,-11.3753896 C1200.64922,-11.3753896 1200.64922,-10.517291 1204.26635,-10.517291 C1207.88148,-10.517291 1207.88148,-11.5015112 1211.49761,-11.5015112 C1215.11274,-11.5015112 1215.11274,-10.6445913 1218.72786,-10.6445913 C1222.34198,-10.6445913 1222.34198,-10.8190399 1225.95711,-10.8190399 C1229.57123,-10.8190399 1229.57123,-10.0658462 1233.18536,-10.0658462 C1236.79847,-10.0658462 1236.79847,-10.5102187 1240.4126,-10.5102187 C1244.02571,-10.5102187 1244.02571,-11.6594579 1247.63984,-11.6594579 C1251.25296,-11.6594579 1251.25296,-10.0175193 1254.86708,-10.0175193 C1258.4812,-10.0175193 1258.4812,-10.5455799 1262.09532,-10.5455799 C1265.70944,-10.5455799 1265.70944,-11.2657698 1269.32457,-11.2657698 C1272.9397,-11.2657698 1272.9397,-10.1412835 1276.55482,-10.1412835 C1280.17095,-10.1412835 1280.17095,-11.0099904 1283.78709,-11.0099904 C1287.40422,-11.0099904 1287.40422,-10.489002 1291.02136,-10.489002 C1294.63749,-10.489002 1294.63749,-10.7860361 1298.25362,-10.7860361 C1301.86874,-10.7860361 1301.86874,-11.4956177 1305.48487,-11.4956177 C1309.099,-11.4956177 1309.099,-10.7483175 1312.71412,-10.7483175 C1316.32824,-10.7483175 1316.32824,-10.762462 1319.94337,-10.762462 C1323.55749,-10.762462 1323.55749,-10.7388879 1327.17162,-10.7388879 C1330.78574,-10.7388879 1330.78574,-10.8720817 1334.40086,-10.8720817 C1338.01499,-10.8720817 1338.01499,-11.8221195 1341.63011,-11.8221195 C1345.24524,-11.8221195 1345.24524,-10.9970247 1348.86137,-10.9970247 C1352.4775,-10.9970247 1352.4775,-11.309382 1356.09363,-11.309382 C1359.71177,-11.309382 1359.71177,-10.6351617 1363.32891,-10.6351617 C1366.94504,-10.6351617 1366.94504,-10.7329943 1370.56117,-10.7329943 C1374.1773,-10.7329943 1374.1773,-10.674059 1377.79243,-10.674059 C1381.40755,-10.674059 1381.40755,-10.9003707 1385.02268,-10.9003707 C1388.6378,-10.9003707 1388.6378,-10.7094202 1392.25293,-10.7094202 C1395.86806,-10.7094202 1395.86806,-11.8786974 1399.48218,-11.8786974 C1403.09831,-11.8786974 1403.09831,-10.4666066 1406.71344,-10.4666066 C1410.32957,-10.4666066 1410.32957,-10.7329943 1413.9457,-10.7329943 C1417.56384,-10.7329943 1417.56384,-11.2304086 1421.18097,-11.2304086 C1424.79811,-11.2304086 1424.79811,-11.349458 1428.41424,-11.349458 C1432.03037,-11.349458 1432.03037,-10.5597244 1435.6465,-10.5597244 C1439.26163,-10.5597244 1439.26163,-11.2987736 1442.87776,-11.2987736 C1446.49288,-11.2987736 1446.49288,-10.9404467 1450.10801,-10.9404467 C1453.72414,-10.9404467 1453.72414,-11.6653515 1457.33927,-11.6653515 C1460.9554,-11.6653515 1460.9554,-10.7483175 1464.57253,-10.7483175 C1468.18967,-10.7483175 1468.18967,-10.8178612 1471.8068,-10.8178612 C1475.42394,-10.8178612 1475.42394,-10.7990019 1479.04107,-10.7990019 C1482.6572,-10.7990019 1482.6572,-10.6174811 1486.27333,-10.6174811 C1489.88946,-10.6174811 1489.88946,-11.3848192 1493.5056,-11.3848192 C1497.12072,-11.3848192 1497.12072,-10.0776333 1500.73685,-10.0776333 C1504.35298,-10.0776333 1504.35298,-10.2509032 1507.97012,-10.2509032 C1511.58725,-10.2509032 1511.58725,-10.4795723 1515.20439,-10.4795723 C1518.82152,-10.4795723 1518.82152,-10.0835268 1522.43966,-10.0835268 C1526.05579,-10.0835268 1526.05579,-10.4913594 1529.67192,-10.4913594 C1533.28805,-10.4913594 1533.28805,-10.3510933 1536.90419,-10.3510933 C1540.52032,-10.3510933 1540.52032,-11.0371007 1544.13745,-11.0371007 C1547.75459,-11.0371007 1547.75459,-9.97744322 1551.37172,-9.97744322 C1554.98986,-9.97744322 1554.98986,-11.1561501 1558.60699,-11.1561501 C1562.22413,-11.1561501 1562.22413,-10.2379374 1565.84026,-10.2379374 C1569.4574,-10.2379374 1569.4574,-10.7777852 1573.07353,-10.7777852 C1576.69066,-10.7777852 1576.69066,-10.4088499 1580.30679,-10.4088499 C1583.92493,-10.4088499 1583.92493,-10.8367205 1587.54307,-10.8367205 C1591.1602,-10.8367205 1591.1602,-11.6264541 1594.77734,-11.6264541 C1598.39447,-11.6264541 1598.39447,-11.0229562 1602.01061,-11.0229562 C1605.62774,-11.0229562 1605.62774,-10.6775951 1609.24488,-10.6775951 C1612.86301,-10.6775951 1612.86301,-10.529078 1616.48115,-10.529078 C1620.09829,-10.529078 1620.09829,-10.7483175 1623.71542,-10.7483175 C1627.33256,-10.7483175 1627.33256,-10.3617017 1630.94969,-10.3617017 C1634.56783,-10.3617017 1634.56783,-10.2450097 1638.18497,-10.2450097 C1641.80311,-10.2450097 1641.80311,-10.9769866 1645.42024,-10.9769866 C1649.03738,-10.9769866 1649.03738,-11.2492679 1652.65451,-11.2492679 C1656.27265,-11.2492679 1656.27265,-9.61440151 1659.88978,-9.61440151 C1663.50792,-9.61440151 1663.50792,-10.7801426 1667.12606,-10.7801426 C1670.7432,-10.7801426 1670.7432,-11.8739826 1674.36033,-11.8739826 C1677.97847,-11.8739826 1677.97847,-10.1495344 1681.59661,-10.1495344 C1685.21375,-10.1495344 1685.21375,-10.4324241 1688.83189,-10.4324241 C1692.44902,-10.4324241 1692.44902,-10.2827283 1696.06716,-10.2827283 C1699.6853,-10.2827283 1699.6853,-10.8862262 1703.30344,-10.8862262 C1706.92158,-10.8862262 1706.92158,-10.8744391 1710.53871,-10.8744391 C1714.15685,-10.8744391 1714.15685,-10.577405 1717.77599,-10.577405 C1721.39112,-10.577405 1721.39112,-10.9463403 1725.00725,-10.9463403 C1728.62238,-10.9463403 1728.62238,-10.665808 1732.2375,-10.665808 C1735.85464,-10.665808 1735.85464,-11.6877469 1739.47077,-11.6877469 C1743.08891,-11.6877469 1743.08891,-10.5455799 1746.70705,-10.5455799 C1750.32318,-10.5455799 1750.32318,-10.9369106 1753.93831,-10.9369106 C1757.55544,-10.9369106 1757.55544,-10.7494962 1761.17258,-10.7494962 C1764.79071,-10.7494962 1764.79071,-9.86664478 1768.40885,-9.86664478 C1772.02498,-9.86664478 1772.02498,-10.5609031 1775.64212,-10.5609031 C1779.26026,-10.5609031 1779.26026,-11.6771385 1782.8784,-11.6771385 C1786.49654,-11.6771385 1786.49654,-11.8539446 1790.11367,-11.8539446 C1793.73181,-11.8539446 1793.73181,-10.4960742 1797.34995,-10.4960742 C1800.96708,-10.4960742 1800.96708,-10.9498764 1804.58522,-10.9498764 C1808.20437,-10.9498764 1808.20437,-11.7407887 1811.82351,-11.7407887 C1815.44065,-11.7407887 1815.44065,-10.6493061 1819.05878,-10.6493061 C1822.67793,-10.6493061 1822.67793,-11.6205606 1826.29707,-11.6205606 C1829.91722,-11.6205606 1829.91722,-11.6276328 1833.53636,-11.6276328 C1837.15551,-11.6276328 1837.15551,-10.6929183 1840.77465,-10.6929183 C1844.39379,-10.6929183 1844.39379,-9.90672081 1848.01294,-9.90672081 C1851.63208,-9.90672081 1851.63208,-10.5043252 1855.25122,-10.5043252 C1858.87137,-10.5043252 1858.87137,-11.2598763 1862.49152,-11.2598763 C1866.10966,-11.2598763 1866.10966,-10.7247434 1869.72679,-10.7247434 C1873.34593,-10.7247434 1873.34593,-10.3416636 1876.96508,-10.3416636 C1880.58422,-10.3416636 1880.58422,-10.517291 1884.20336,-10.517291 C1887.82351,-10.517291 1887.82351,-11.2304086 1891.44266,-11.2304086 C1895.0628,-11.2304086 1895.0628,-11.1313972 1898.68295,-11.1313972 C1902.30109,-11.1313972 1902.30109,-10.6728803 1905.91923,-10.6728803 C1909.54038,-10.6728803 1909.54038,-11.152614 1913.16153,-11.152614 C1916.7857,-11.152614 1916.7857,-10.6080514 1920.40986,-10.6080514 C1924.03402,-10.6080514 1924.85948,-13.4534498 1927.43626,-10.4618917 C1929.98392,-7.5033375 1927.4925,-6.51675985 1927.4925,-2.30995503 C1927.4925,1.89802849 1928.02472,1.89802849 1928.02472,6.10601202 C1928.02472,10.3151742 1927.61601,10.3151742 1927.61601,14.5243365 C1927.61601,18.7299626 1928.17636,18.7299626 1928.17636,22.9367674 C1928.17636,27.1471083 1927.40111,27.1471083 1927.40111,31.3574493 C1927.40111,35.5713263 1927.72447,35.5713263 1927.72447,39.7840247 C1927.72447,43.9967231 1930.49506,45.5844412 1927.9484,48.5536038 C1925.38367,51.5428044 1924.04407,48.2106001 1920.42994,48.2106001 C1916.81582,48.2106001 1916.81582,47.7155432 1913.2027,47.7155432 C1909.58858,47.7155432 1909.58858,47.0778628 1905.97546,47.0778628 C1902.36134,47.0778628 1902.36134,49.1370637 1898.74822,49.1370637 C1895.13511,49.1370637 1895.13511,49.0521968 1891.52098,49.0521968 C1887.90786,49.0521968 1887.90786,47.8334139 1884.29475,47.8334139 C1880.68062,47.8334139 1880.68062,48.3272921 1877.06751,48.3272921 C1873.45439,48.3272921 1873.45439,48.8730334 1869.84027,48.8730334 C1866.22715,48.8730334 1866.22715,47.7344025 1862.61403,47.7344025 C1858.99991,47.7344025 1858.99991,49.4718165 1855.38679,49.4718165 C1851.77267,49.4718165 1851.77267,49.0498394 1848.15955,49.0498394 C1844.54543,49.0498394 1844.54543,47.9642504 1840.9313,47.9642504 C1837.31819,47.9642504 1837.31819,48.062083 1833.70406,48.062083 C1830.08994,48.062083 1830.08994,49.0510181 1826.47582,49.0510181 C1822.8617,49.0510181 1822.8617,48.0279005 1819.24757,48.0279005 C1815.63245,48.0279005 1815.63245,48.6797254 1812.01833,48.6797254 C1808.4032,48.6797254 1808.4032,48.5347445 1804.78807,48.5347445 C1801.17395,48.5347445 1801.17395,48.4098016 1797.55882,48.4098016 C1793.94269,48.4098016 1793.94269,48.335543 1790.32757,48.335543 C1786.71144,48.335543 1786.71144,47.8640603 1783.09631,47.8640603 C1779.48018,47.8640603 1779.48018,48.3379005 1775.86405,48.3379005 C1772.24892,48.3379005 1772.24892,49.1347063 1768.63279,49.1347063 C1765.01766,49.1347063 1765.01766,48.8305999 1761.40254,48.8305999 C1757.78741,48.8305999 1757.78741,48.2942883 1754.17228,48.2942883 C1750.55716,48.2942883 1750.55716,49.2985466 1746.94304,49.2985466 C1743.32791,49.2985466 1743.32791,47.7803721 1739.71379,47.7803721 C1736.09966,47.7803721 1736.09966,47.7461896 1732.48454,47.7461896 C1728.87042,47.7461896 1728.87042,48.4357331 1725.25629,48.4357331 C1721.64217,48.4357331 1721.64217,47.4126156 1718.02805,47.4126156 C1714.41493,47.4126156 1714.41493,47.9076724 1710.80081,47.9076724 C1707.18669,47.9076724 1707.18669,48.2082427 1703.57256,48.2082427 C1699.95945,48.2082427 1699.95945,48.1528435 1696.34532,48.1528435 C1692.7312,48.1528435 1692.7312,48.7233376 1689.11708,48.7233376 C1685.50396,48.7233376 1685.50396,48.4145164 1681.88984,48.4145164 C1678.27572,48.4145164 1678.27572,49.2066074 1674.66159,49.2066074 C1671.04747,49.2066074 1671.04747,47.2511327 1667.43435,47.2511327 C1663.82023,47.2511327 1663.82023,48.4852388 1660.20611,48.4852388 C1656.59098,48.4852388 1656.59098,48.8529954 1652.97686,48.8529954 C1649.36274,48.8529954 1649.36274,47.181589 1645.74761,47.181589 C1642.13349,47.181589 1642.13349,48.4687369 1638.51836,48.4687369 C1634.90324,48.4687369 1634.90324,48.685619 1631.28911,48.685619 C1627.67399,48.685619 1627.67399,48.1728815 1624.05886,48.1728815 C1620.44273,48.1728815 1620.44273,47.3501441 1616.8276,47.3501441 C1613.21147,47.3501441 1613.21147,48.1434138 1609.59534,48.1434138 C1605.97921,48.1434138 1605.97921,48.1398777 1602.36308,48.1398777 C1598.74795,48.1398777 1598.74795,49.2973678 1595.13182,49.2973678 C1591.5167,49.2973678 1591.5167,47.6648588 1587.90157,47.6648588 C1584.28544,47.6648588 1584.28544,47.4220452 1580.67132,47.4220452 C1577.05619,47.4220452 1577.05619,48.1929195 1573.44106,48.1929195 C1569.82594,48.1929195 1569.82594,47.8558093 1566.21181,47.8558093 C1562.59769,47.8558093 1562.59769,48.2990031 1558.98257,48.2990031 C1555.36844,48.2990031 1555.36844,48.1174823 1551.75432,48.1174823 C1548.13919,48.1174823 1548.13919,48.3084328 1544.52507,48.3084328 C1540.91095,48.3084328 1540.91095,47.893528 1537.29683,47.893528 C1533.68271,47.893528 1533.68271,48.6042882 1530.06858,48.6042882 C1526.45446,48.6042882 1526.45446,48.870676 1522.84034,48.870676 C1519.22622,48.870676 1519.22622,48.3897636 1515.61109,48.3897636 C1511.99697,48.3897636 1511.99697,48.4663795 1508.38285,48.4663795 C1504.76872,48.4663795 1504.76872,48.8188129 1501.1536,48.8188129 C1497.53947,48.8188129 1497.53947,46.996532 1493.92435,46.996532 C1490.30922,46.996532 1490.30922,47.4762657 1486.69409,47.4762657 C1483.07897,47.4762657 1483.07897,48.6490791 1479.46384,48.6490791 C1475.84872,48.6490791 1475.84872,48.452235 1472.23359,48.452235 C1468.61746,48.452235 1468.61746,48.4545924 1465.00133,48.4545924 C1461.3852,48.4545924 1461.3852,47.620068 1457.76907,47.620068 C1454.15293,47.620068 1454.15293,48.5736418 1450.5368,48.5736418 C1446.92168,48.5736418 1446.92168,48.2058853 1443.30555,48.2058853 C1439.69042,48.2058853 1439.69042,48.1846686 1436.07529,48.1846686 C1432.46017,48.1846686 1432.46017,48.5771779 1428.84504,48.5771779 C1425.22991,48.5771779 1425.22991,49.0168356 1421.61479,49.0168356 C1418.00067,49.0168356 1418.00067,49.0309801 1414.38554,49.0309801 C1410.77041,49.0309801 1410.77041,49.4989267 1407.15629,49.4989267 C1403.54116,49.4989267 1403.54116,48.4982046 1399.92704,48.4982046 C1396.31292,48.4982046 1396.31292,48.3532236 1392.69779,48.3532236 C1389.08367,48.3532236 1389.08367,47.6495356 1385.46854,47.6495356 C1381.85442,47.6495356 1381.85442,48.4510563 1378.2403,48.4510563 C1374.62517,48.4510563 1374.62517,48.4887749 1371.01005,48.4887749 C1367.39592,48.4887749 1367.39592,48.822349 1363.7808,48.822349 C1360.16567,48.822349 1360.16567,48.7469117 1356.55054,48.7469117 C1352.93542,48.7469117 1352.93542,47.6495356 1349.32029,47.6495356 C1345.70416,47.6495356 1345.70416,47.9654291 1342.08903,47.9654291 C1338.4729,47.9654291 1338.4729,47.83695 1334.85677,47.83695 C1331.24064,47.83695 1331.24064,48.3968358 1327.62451,48.3968358 C1324.00838,48.3968358 1324.00838,48.2978244 1320.39225,48.2978244 C1316.77612,48.2978244 1316.77612,48.4593073 1313.15999,48.4593073 C1309.54486,48.4593073 1309.54486,48.4310183 1305.92974,48.4310183 C1302.31461,48.4310183 1302.31461,48.2848586 1298.69948,48.2848586 C1295.08436,48.2848586 1295.08436,47.8947067 1291.46923,47.8947067 C1287.8541,47.8947067 1287.8541,47.3631099 1284.23898,47.3631099 C1280.62485,47.3631099 1280.62485,48.7763794 1277.00973,48.7763794 C1273.3946,48.7763794 1273.3946,47.044859 1269.78048,47.044859 C1266.16535,47.044859 1266.16535,48.7563414 1262.55023,48.7563414 C1258.9351,48.7563414 1258.9351,48.0255431 1255.32098,48.0255431 C1251.70585,48.0255431 1251.70585,47.2381669 1248.09072,47.2381669 C1244.4756,47.2381669 1244.4756,48.2400678 1240.86047,48.2400678 C1237.24434,48.2400678 1237.24434,48.1929195 1233.62921,48.1929195 C1230.01308,48.1929195 1230.01308,48.3272921 1226.39695,48.3272921 C1222.78082,48.3272921 1222.78082,48.1080526 1219.16469,48.1080526 C1215.54856,48.1080526 1215.54856,48.0231857 1211.93243,48.0231857 C1208.3163,48.0231857 1208.3163,48.0290793 1204.70017,48.0290793 C1201.08404,48.0290793 1201.08404,47.1320833 1197.46891,47.1320833 C1193.85278,47.1320833 1193.85278,47.2039844 1190.23765,47.2039844 C1186.62253,47.2039844 1186.62253,47.6837181 1183.0074,47.6837181 C1179.39227,47.6837181 1179.39227,47.9548207 1175.77715,47.9548207 C1172.16202,47.9548207 1172.16202,48.8883566 1168.54689,48.8883566 C1164.93177,48.8883566 1164.93177,48.7245163 1161.31664,48.7245163 C1157.70151,48.7245163 1157.70151,48.2223872 1154.08639,48.2223872 C1150.47126,48.2223872 1150.47126,48.5948586 1146.85613,48.5948586 C1143.24101,48.5948586 1143.24101,48.001969 1139.62588,48.001969 C1136.00975,48.001969 1136.00975,48.6915125 1132.39462,48.6915125 C1128.77849,48.6915125 1128.77849,48.1033378 1125.16236,48.1033378 C1121.54623,48.1033378 1121.54623,48.822349 1117.9291,48.822349 C1114.31297,48.822349 1114.31297,47.5599539 1110.69684,47.5599539 C1107.08071,47.5599539 1107.08071,48.1634518 1103.46457,48.1634518 C1099.84844,48.1634518 1099.84844,48.0055051 1096.23332,48.0055051 C1092.61819,48.0055051 1092.61819,48.6031095 1089.00206,48.6031095 C1085.38693,48.6031095 1085.38693,48.4769879 1081.77181,48.4769879 C1078.15668,48.4769879 1078.15668,47.8098398 1074.54155,47.8098398 C1070.92643,47.8098398 1070.92643,48.1316268 1067.3103,48.1316268 C1063.69517,48.1316268 1063.69517,47.9984329 1060.08004,47.9984329 C1056.46492,47.9984329 1056.46492,48.1092313 1052.84879,48.1092313 C1049.23366,48.1092313 1049.23366,47.6707524 1045.61753,47.6707524 C1042.0014,47.6707524 1042.0014,49.4435275 1038.38527,49.4435275 C1034.76914,49.4435275 1034.76914,48.4534137 1031.15301,48.4534137 C1027.53587,48.4534137 1027.53587,47.3607525 1023.91974,47.3607525 C1020.30361,47.3607525 1020.30361,48.9378623 1016.68748,48.9378623 C1013.07135,48.9378623 1013.07135,48.3732617 1009.45622,48.3732617 C1005.84009,48.3732617 1005.84009,48.1658093 1002.22496,48.1658093 C998.609838,48.1658093 998.609838,48.4887749 994.993708,48.4887749 C991.378581,48.4887749 991.378581,49.0804858 987.763455,49.0804858 C984.147324,49.0804858 984.147324,48.1775963 980.532197,48.1775963 C976.916067,48.1775963 976.916067,48.4982046 973.30094,48.4982046 C969.68481,48.4982046 969.68481,49.0203717 966.069683,49.0203717 C962.452548,49.0203717 962.452548,49.0356949 958.836417,49.0356949 C955.220287,49.0356949 955.220287,48.9060372 951.603152,48.9060372 C947.987021,48.9060372 947.987021,48.3968358 944.37089,48.3968358 C940.75476,48.3968358 940.75476,47.9100299 937.138629,47.9100299 C933.522498,47.9100299 933.522498,48.7292311 929.907372,48.7292311 C926.291241,48.7292311 926.291241,48.1009804 922.676114,48.1009804 C919.059984,48.1009804 919.059984,48.480524 915.444857,48.480524 C911.828726,48.480524 911.828726,47.2181289 908.2136,47.2181289 C904.597469,47.2181289 904.597469,47.7532618 900.981339,47.7532618 C897.366212,47.7532618 897.366212,49.3327291 893.750081,49.3327291 C890.132946,49.3327291 890.132946,49.06752 886.516816,49.06752 C882.899681,49.06752 882.899681,47.7426535 879.28355,47.7426535 C875.667419,47.7426535 875.667419,48.4298396 872.051289,48.4298396 C868.435158,48.4298396 868.435158,47.7308664 864.819027,47.7308664 C861.202896,47.7308664 861.202896,47.5458094 857.58777,47.5458094 C853.971639,47.5458094 853.971639,48.0432237 850.355508,48.0432237 C846.740382,48.0432237 846.740382,47.2440605 843.124251,47.2440605 C839.508121,47.2440605 839.508121,49.0463033 835.89199,49.0463033 C832.275859,49.0463033 832.275859,49.3056188 828.659728,49.3056188 C825.043598,49.3056188 825.043598,47.9112086 821.426463,47.9112086 C817.810332,47.9112086 817.810332,47.4302962 814.193197,47.4302962 C810.577066,47.4302962 810.577066,47.5304862 806.960936,47.5304862 C803.344805,47.5304862 803.344805,48.098623 799.728674,48.098623 C796.113548,48.098623 796.113548,48.4899536 792.497417,48.4899536 C788.881286,48.4899536 788.881286,48.7775581 785.265156,48.7775581 C781.649025,48.7775581 781.649025,46.9977107 778.033898,46.9977107 C774.416763,46.9977107 774.416763,49.0144782 770.800633,49.0144782 C767.183498,49.0144782 767.183498,47.981931 763.566363,47.981931 C759.950232,47.981931 759.950232,48.1469499 756.334101,48.1469499 C752.717971,48.1469499 752.717971,48.950828 749.10184,48.950828 C745.485709,48.950828 745.485709,49.144136 741.869579,49.144136 C738.253448,49.144136 738.253448,48.4946685 734.637317,48.4946685 C731.021186,48.4946685 731.021186,47.543452 727.405056,47.543452 C723.788925,47.543452 723.788925,48.0267218 720.173798,48.0267218 C716.556663,48.0267218 716.556663,48.6290411 712.939529,48.6290411 C709.323398,48.6290411 709.323398,47.2664559 705.707267,47.2664559 C702.093145,47.2664559 702.093145,48.7763794 698.478018,48.7763794 C694.862892,48.7763794 694.862892,47.0755054 691.248769,47.0755054 C687.634647,47.0755054 687.634647,48.4498776 684.020525,48.4498776 C680.407407,48.4498776 680.407407,48.7869878 676.793284,48.7869878 C673.179162,48.7869878 673.179162,48.0609043 669.566044,48.0609043 C665.951922,48.0609043 665.951922,47.9501059 662.338804,47.9501059 C658.724681,47.9501059 658.724681,48.7127292 655.110559,48.7127292 C651.495432,48.7127292 651.495432,47.4998399 647.88131,47.4998399 C644.266184,47.4998399 644.266184,48.2530336 640.651057,48.2530336 C637.034926,48.2530336 637.034926,48.2329955 633.418796,48.2329955 C629.801661,48.2329955 629.801661,47.6094596 626.184526,47.6094596 C622.568395,47.6094596 622.568395,48.7139079 618.95126,48.7139079 C615.336134,48.7139079 615.336134,47.3760756 611.721007,47.3760756 C608.105881,47.3760756 608.105881,48.5618548 604.491758,48.5618548 C600.876632,48.5618548 600.876632,48.7139079 597.262509,48.7139079 C593.648387,48.7139079 593.648387,48.6443642 590.034265,48.6443642 C586.419138,48.6443642 586.419138,48.9472919 582.805016,48.9472919 C579.18989,48.9472919 579.18989,48.4298396 575.575767,48.4298396 C571.959636,48.4298396 571.959636,48.0125774 568.34451,48.0125774 C564.727375,48.0125774 564.727375,48.7563414 561.111244,48.7563414 C557.494109,48.7563414 557.494109,47.5823494 553.876974,47.5823494 C550.260844,47.5823494 550.260844,47.8463797 546.643709,47.8463797 C543.028582,47.8463797 543.028582,48.1622731 539.412452,48.1622731 C535.797325,48.1622731 535.797325,47.2629198 532.183203,47.2629198 C528.568076,47.2629198 528.568076,48.1210184 524.95295,48.1210184 C521.337823,48.1210184 521.337823,49.0203717 517.722697,49.0203717 C514.10757,49.0203717 514.10757,48.0726914 510.492444,48.0726914 C506.875309,48.0726914 506.875309,48.0550108 503.259178,48.0550108 C499.642043,48.0550108 499.642043,47.9194595 496.024908,47.9194595 C492.407773,47.9194595 492.407773,48.0856572 488.790638,48.0856572 C485.175512,48.0856572 485.175512,48.8918927 481.559381,48.8918927 C477.94325,48.8918927 477.94325,49.0038698 474.328124,49.0038698 C470.712997,49.0038698 470.712997,48.3508662 467.096867,48.3508662 C463.48174,48.3508662 463.48174,48.9967976 459.865609,48.9967976 C456.249479,48.9967976 456.249479,47.8640603 452.633348,47.8640603 C449.016213,47.8640603 449.016213,48.5147065 445.398074,48.5147065 C441.781943,48.5147065 441.781943,49.2148584 438.164808,49.2148584 C434.548678,49.2148584 434.548678,47.4232239 430.931543,47.4232239 C427.316416,47.4232239 427.316416,48.1681667 423.700285,48.1681667 C420.084155,48.1681667 420.084155,48.7598775 416.469028,48.7598775 C412.851893,48.7598775 412.851893,49.3963792 409.235763,49.3963792 C405.618628,49.3963792 405.618628,48.5701057 402.000489,48.5701057 C398.383354,48.5701057 398.383354,47.9394975 394.766219,47.9394975 C391.150088,47.9394975 391.150088,48.979117 387.533957,48.979117 C383.917827,48.979117 383.917827,48.5194213 380.301696,48.5194213 C376.684561,48.5194213 376.684561,48.8600676 373.06843,48.8600676 C369.451295,48.8600676 369.451295,48.3956571 365.83416,48.3956571 C362.216021,48.3956571 362.216021,47.8145546 358.598886,47.8145546 C354.981751,47.8145546 354.981751,47.4739083 351.365621,47.4739083 C347.748486,47.4739083 347.748486,47.7662276 344.132355,47.7662276 C340.51522,47.7662276 340.51522,47.7732999 336.898085,47.7732999 C333.279946,47.7732999 333.279946,48.3249347 329.662811,48.3249347 C326.045676,48.3249347 326.045676,47.9701439 322.427537,47.9701439 C318.811406,47.9701439 318.811406,47.7520831 315.194271,47.7520831 C311.577137,47.7520831 311.577137,48.5347445 307.960002,48.5347445 C304.341863,48.5347445 304.341863,48.7869878 300.723723,48.7869878 C297.106588,48.7869878 297.106588,48.0644405 293.489454,48.0644405 C289.872319,48.0644405 289.872319,48.2978244 286.256188,48.2978244 C282.638049,48.2978244 282.638049,48.7704859 279.020914,48.7704859 C275.402775,48.7704859 275.402775,48.303718 271.784636,48.303718 C268.167501,48.303718 268.167501,49.1323489 264.550366,49.1323489 C260.933231,49.1323489 260.933231,47.3418931 257.315092,47.3418931 C253.697957,47.3418931 253.697957,47.8605242 250.079818,47.8605242 C246.462683,47.8605242 246.462683,48.4439841 242.845548,48.4439841 C239.227409,48.4439841 239.227409,47.435011 235.60927,47.435011 C231.991131,47.435011 231.991131,47.6294976 228.373996,47.6294976 C224.755856,47.6294976 224.755856,48.1681667 221.138722,48.1681667 C217.520582,48.1681667 217.520582,49.0380523 213.902443,49.0380523 C210.284304,49.0380523 210.284304,48.8329573 206.667169,48.8329573 C203.048026,48.8329573 203.048026,49.0309801 199.429887,49.0309801 C195.813756,49.0309801 195.813756,48.1610944 192.19863,48.1610944 C188.582499,48.1610944 188.582499,47.9041363 184.967372,47.9041363 C181.351242,47.9041363 181.351242,47.9831097 177.734107,47.9831097 C174.116972,47.9831097 174.116972,47.3831479 170.498833,47.3831479 C166.882702,47.3831479 166.882702,49.0592691 163.266571,49.0592691 C159.650441,49.0592691 159.650441,49.1995352 156.033306,49.1995352 C152.415166,49.1995352 152.415166,48.5323871 148.797027,48.5323871 C145.179892,48.5323871 145.179892,48.0514747 141.563762,48.0514747 C137.945623,48.0514747 137.945623,47.5328437 134.326479,47.5328437 C130.709344,47.5328437 130.709344,48.6950486 127.092209,48.6950486 C123.47407,48.6950486 123.47407,47.483338 119.855931,47.483338 C116.237792,47.483338 116.237792,47.5811706 112.620657,47.5811706 C109.001514,47.5811706 109.001514,48.3390792 105.382371,48.3390792 C101.764231,48.3390792 101.764231,47.5870642 98.1460923,47.5870642 C94.5269489,47.5870642 94.5269489,47.7473683 90.9088098,47.7473683 C87.2886623,47.7473683 87.2886623,48.1964556 83.669519,48.1964556 C80.0503756,48.1964556 80.0503756,48.1882047 76.4312323,48.1882047 C72.812089,48.1882047 72.812089,47.8121972 69.1929457,47.8121972 C65.5738024,47.8121972 65.5738024,48.7080144 61.9536548,48.7080144 C58.3335073,48.7080144 58.3335073,48.6325772 54.714364,48.6325772 C51.0962249,48.6325772 51.0962249,47.3831479 47.4790899,47.3831479 C43.8589424,47.3831479 43.8589424,48.1893834 40.2397991,48.1893834 C36.6206558,48.1893834 36.6206558,47.9324253 33.0015124,47.9324253 C29.3823691,47.9324253 29.3823691,47.7603341 25.7632258,47.7603341 C22.1430783,47.7603341 22.1430783,48.0609043 18.5229307,48.0609043 C14.9047916,48.0609043 14.9047916,48.090372 11.2866525,48.090372 C7.66449657,48.090372 7.66449657,48.6231475 4.04334485,48.6231475 C0.419180514,48.6231475 0.419180514,47.161551 -3.20397962,47.161551 C-6.82814395,47.161551 -8.56340468,52.0178233 -11.1391823,49.0262653 C-13.6878465,46.0665323 -9.89999729,44.0026166 -9.89999729,39.7946331 C-9.89999729,35.5866495 -9.64894683,35.5866495 -9.64894683,31.378666 C-9.64894683,27.1706825 -10.7515604,27.1706825 -10.7515604,22.9615203 C-10.7515604,18.7547154 -9.94217376,18.7547154 -9.94217376,14.5479106 C-9.94217376,10.3375697 -10.6953251,10.3375697 -10.6953251,6.12722874 C-10.6953251,1.91453039 -9.90200569,1.86973953 -10.6210142,-2.25809193 C-11.3731613,-6.56862295 -12.62038,-7.30885087 -10.0737242,-10.2780135" id="Fill-1" fill="#fff" fill-rule="nonzero" mask="url(#mask-2)"></path>
            </g>
        </g>
    </g>
</svg>